<svg xmlns="http://www.w3.org/2000/svg" viewBox="-4 -12 279.04 54.0" role="img" aria-label="BusBench"><path fill="#E6EDF3" d="M0 12.5 h52 v5 h-52 Z M4 6 h5 v7 h-5 Z M2 0 h9 v8 h-9 Z M24 6 h5 v7 h-5 Z M22 0 h9 v8 h-9 Z M44 6 h5 v7 h-5 Z M42 0 h9 v8 h-9 Z M14 17 h5 v6 h-5 Z M12 22 h9 v8 h-9 Z M34 17 h5 v6 h-5 Z M32 22 h9 v8 h-9 Z"/><path fill="#E6EDF3" d="M69.59566796875 30.0V-0.7119999999999997H83.8367470703125Q87.6207470703125 -0.7119999999999997 89.78972631835939 1.4440000000000008Q91.95870556640625 3.6000000000000014 91.95870556640625 7.176979248046877Q91.95870556640625 9.496000000000002 91.17572631835938 10.90653112792969Q90.3927470703125 12.317062255859376 89.13368481445312 12.977062255859376Q87.87462255859376 13.637062255859377 86.45935278320312 13.751020751953124V14.015020751953125Q87.48147729492187 14.028 88.6240499267578 14.430489624023437Q89.76662255859375 14.832979248046875 90.79017443847655 15.668979248046876Q91.81372631835937 16.504979248046876 92.4607470703125 17.871510375976563Q93.10776782226563 19.238041503906253 93.10776782226563 21.205062255859374Q93.10776782226563 23.651020751953126 92.07376782226562 25.644Q91.03976782226562 27.636979248046874 89.25776782226562 28.818489624023435Q87.47576782226562 30.0 85.18776782226563 30.0ZM75.4010791015625 16.8607470703125V25.06887939453125H83.5164150390625Q84.6040830078125 25.06887939453125 85.39134436035157 24.673983154296877Q86.17860571289063 24.2790869140625 86.60848120117188 23.533294433593753Q87.03835668945312 22.787501953125002 87.03835668945312 21.712813232421876V20.216813232421877Q87.03835668945312 19.142124511718748 86.60848120117188 18.396332031249997Q86.17860571289063 17.65053955078125 85.39134436035157 17.255643310546873Q84.6040830078125 16.8607470703125 83.5164150390625 16.8607470703125ZM75.4010791015625 4.219120605468753V12.079667968750002H82.59020751953125Q83.63893774414062 12.079667968750002 84.3937509765625 11.697750976562501Q85.14856420898437 11.315833984375 85.54995007324219 10.586979248046877Q85.9513359375 9.858124511718753 85.9513359375 8.835352783203128V7.463435791015627Q85.9513359375 6.440664062500002 85.54995007324219 5.711809326171876Q85.14856420898437 4.98295458984375 84.3937509765625 4.601037597656251Q83.63893774414062 4.219120605468753 82.59020751953125 4.219120605468753Z M112.15950195312499 30.0V26.1799169921875H111.95248120117188Q111.35452270507812 27.900979248046873 109.86248120117187 29.214489624023436Q108.37043969726562 30.528 105.51043969726562 30.528Q102.00341894531249 30.528 100.08403308105468 28.18444812011719Q98.16464721679687 25.840896240234375 98.16464721679687 21.549792480468753V7.016813232421875H103.79405834960937V20.964813232421875Q103.79405834960937 23.34937744140625 104.72629895019531 24.610190673828125Q105.65853955078124 25.87100390625 107.652166015625 25.87100390625Q108.78097924804688 25.87100390625 109.817833984375 25.47104541015625Q110.85468872070312 25.0710869140625 111.50709533691406 24.258190673828125Q112.15950195312499 23.44529443359375 112.15950195312499 22.228481201171874V7.016813232421875H117.7889130859375V30.0Z M131.82114526367187 30.528Q128.54204150390623 30.528 126.29297924804686 29.411062255859374Q124.04391699218749 28.29412451171875 122.31779248046875 26.301145263671874L125.7564150390625 22.974273681640625Q127.01437353515625 24.416149169921876 128.5493112792969 25.2470869140625Q130.0842490234375 26.078024658203127 132.05412451171875 26.078024658203127Q134.08097924804687 26.078024658203127 134.97824060058593 25.373701049804687Q135.875501953125 24.66937744140625 135.875501953125 23.436730224609377Q135.875501953125 22.426937744140623 135.23464721679687 21.831186767578124Q134.59379248046875 21.235435791015625 133.0632697753906 21.020498046874998L130.76293774414063 20.725477294921873Q128.32268872070313 20.38645654296875 126.60415759277345 19.551883911132812Q124.88562646484375 18.717311279296876 124.00166796875 17.2822490234375Q123.11770947265624 15.847186767578126 123.11770947265624 13.76620751953125Q123.11770947265624 10.409228271484377 125.50526135253907 8.449020751953126Q127.89281323242187 6.488813232421876 131.83412451171876 6.488813232421876Q134.08539428710938 6.488813232421876 135.68600842285156 6.913302856445313Q137.28662255859373 7.3377924804687495 138.50817443847654 8.15179248046875Q139.72972631835938 8.96579248046875 140.808830078125 10.109792480468752L137.484166015625 13.431601806640625Q136.488 12.344581054687502 135.08253112792968 11.641684814453127Q133.67706225585937 10.938788574218751 132.0044150390625 10.938788574218751Q130.2206640625 10.938788574218751 129.3713612060547 11.590091430664064Q128.52205834960938 12.241394287109376 128.52205834960938 13.342041503906252Q128.52205834960938 14.473709472656251 129.20976782226563 15.0575849609375Q129.89747729492188 15.641460449218751 131.51314526367187 15.900398193359376L133.86253955078124 16.226439697265626Q137.64653955078126 16.736398193359378 139.4631951904297 18.435460449218752Q141.27985083007812 20.134522705078126 141.27985083007812 23.00970947265625Q141.27985083007812 25.20970947265625 140.11274707031248 26.917792480468748Q138.94564331054687 28.62587548828125 136.82098767089843 29.576937744140622Q134.69633203125 30.528 131.82114526367187 30.528Z M146.59566796875 30.0V-0.7119999999999997H160.8367470703125Q164.6207470703125 -0.7119999999999997 166.78972631835939 1.4440000000000008Q168.95870556640625 3.6000000000000014 168.95870556640625 7.176979248046877Q168.95870556640625 9.496000000000002 168.17572631835938 10.90653112792969Q167.3927470703125 12.317062255859376 166.13368481445315 12.977062255859376Q164.87462255859376 13.637062255859377 163.45935278320312 13.751020751953124V14.015020751953125Q164.4814772949219 14.028 165.62404992675783 14.430489624023437Q166.76662255859375 14.832979248046875 167.79017443847658 15.668979248046876Q168.8137263183594 16.504979248046876 169.4607470703125 17.871510375976563Q170.10776782226563 19.238041503906253 170.10776782226563 21.205062255859374Q170.10776782226563 23.651020751953126 169.0737678222656 25.644Q168.03976782226562 27.636979248046874 166.25776782226563 28.818489624023435Q164.47576782226562 30.0 162.1877678222656 30.0ZM152.4010791015625 16.8607470703125V25.06887939453125H160.5164150390625Q161.6040830078125 25.06887939453125 162.39134436035158 24.673983154296877Q163.17860571289063 24.2790869140625 163.60848120117186 23.533294433593753Q164.0383566894531 22.787501953125002 164.0383566894531 21.712813232421876V20.216813232421877Q164.0383566894531 19.142124511718748 163.60848120117186 18.396332031249997Q163.17860571289063 17.65053955078125 162.39134436035158 17.255643310546873Q161.6040830078125 16.8607470703125 160.5164150390625 16.8607470703125ZM152.4010791015625 4.219120605468753V12.079667968750002H159.59020751953125Q160.63893774414063 12.079667968750002 161.3937509765625 11.697750976562501Q162.14856420898437 11.315833984375 162.5499500732422 10.586979248046877Q162.9513359375 9.858124511718753 162.9513359375 8.835352783203128V7.463435791015627Q162.9513359375 6.440664062500002 162.5499500732422 5.711809326171876Q162.14856420898437 4.98295458984375 161.3937509765625 4.601037597656251Q160.63893774414063 4.219120605468753 159.59020751953125 4.219120605468753Z M184.72718676757813 30.528Q181.33697924804687 30.528 178.9093858642578 29.054Q176.48179248046876 27.58 175.19028210449218 24.871468872070313Q173.8987717285156 22.162937744140628 173.8987717285156 18.492896240234376Q173.8987717285156 14.85387548828125 175.15926135253906 12.160854736328126Q176.4197509765625 9.467833984375002 178.8008132324219 7.978323608398439Q181.18187548828124 6.488813232421876 184.54106225585937 6.488813232421876Q188.13543579101562 6.488813232421876 190.44400842285154 8.0739169921875Q192.75258105468748 9.659020751953125 193.87853955078123 12.291103759765626Q195.004498046875 14.923186767578127 195.004498046875 18.073145263671876V19.931269775390625H179.73520361328124V20.490937744140624Q179.73520361328124 22.97362646484375 181.14495458984373 24.4973359375Q182.55470556640626 26.02104541015625 185.31943579101562 26.02104541015625Q187.41339428710938 26.02104541015625 188.77122827148438 25.13312841796875Q190.12906225585937 24.24521142578125 191.164166015625 22.9115849609375L194.1995187988281 26.297643310546874Q192.78931127929687 28.213394287109374 190.34873864746095 29.370697143554686Q187.908166015625 30.528 184.72718676757813 30.528ZM184.63412451171874 10.739684814453128Q183.14539428710938 10.739684814453128 182.04364331054688 11.418049926757813Q180.94189233398438 12.0964150390625 180.3385479736328 13.301676391601562Q179.73520361328124 14.506937744140625 179.73520361328124 16.11468872070313V16.45370947265625H189.14210766601562V16.0317509765625Q189.14210766601562 14.442041503906252 188.62676330566404 13.256249023437501Q188.1114189453125 12.070456542968753 187.10415759277345 11.40507067871094Q186.09689624023437 10.739684814453128 184.63412451171874 10.739684814453128Z M205.59707910156249 30.0H199.96766796875V7.016813232421875H205.59707910156249V10.8679169921875H205.83512060546875Q206.51601684570312 9.024979248046876 208.04952722167968 7.756896240234376Q209.58303759765624 6.488813232421876 212.25912060546875 6.488813232421876Q215.77912060546873 6.488813232421876 217.68552722167968 8.844017577505355Q219.59193383789062 11.199221922588833 219.59193383789062 15.49804150390625V30.0H213.96252270507813V16.052Q213.96252270507813 13.616552830977408 213.0833028564453 12.381181078574642Q212.2040830078125 11.145809326171875 210.1794357910156 11.145809326171875Q209.02511660698784 11.145809326171875 207.97901484646266 11.545767822265626Q206.93291308593749 11.945726318359377 206.26499609374997 12.763054094587055Q205.59707910156249 13.580381870814733 205.59707910156249 14.80637353515625Z M234.9080830078125 30.528Q229.8328962402344 30.528 227.077833984375 27.269468872070313Q224.32277172851562 24.010937744140627 224.32277172851562 18.492896240234376Q224.32277172851562 12.974854736328126 227.077833984375 9.731833984375001Q229.8328962402344 6.488813232421876 234.9080830078125 6.488813232421876Q238.38914526367188 6.488813232421876 240.65878015136718 8.046854736328125Q242.92841503906251 9.604896240234375 243.92743579101563 12.309145263671876L239.3353359375 14.363518798828126Q238.9364812011719 12.913726318359377 237.8321990966797 11.976747070312502Q236.7279169921875 11.039767822265627 234.9080830078125 11.039767822265627Q232.59062255859376 11.039767822265627 231.40340270996094 12.519477294921877Q230.21618286132812 13.999186767578127 230.21618286132812 16.432813232421875V20.615020751953125Q230.21618286132812 23.004647216796876 231.40340270996094 24.506356689453128Q232.59062255859376 26.008066162109376 234.9080830078125 26.008066162109376Q236.90897924804688 26.008066162109376 238.0301990966797 24.96504541015625Q239.1514189453125 23.922024658203124 239.76521142578125 22.38929443359375L244.08539428710938 24.446522705078124Q242.95437353515626 27.486937744140626 240.60575939941407 29.007468872070312Q238.25714526367187 30.528 234.9080830078125 30.528Z M248.41166796874998 30.0V-2.559999999999995H254.04107910156247V10.8679169921875H254.27912060546873Q254.9600168457031 9.024979248046876 256.49352722167964 7.756896240234376Q258.0270375976562 6.488813232421876 260.7031206054687 6.488813232421876Q264.22312060546875 6.488813232421876 266.12952722167967 8.844017577505355Q268.0359338378906 11.199221922588833 268.0359338378906 15.49804150390625V30.0H262.4065227050781V16.052Q262.4065227050781 13.616552830977408 261.5273028564453 12.381181078574642Q260.6480830078125 11.145809326171875 258.6234357910156 11.145809326171875Q257.4691166069878 11.145809326171875 256.42301484646265 11.545767822265626Q255.37691308593747 11.945726318359377 254.70899609375 12.763054094587055Q254.04107910156247 13.580381870814733 254.04107910156247 14.80637353515625V30.0Z"/></svg>
